<svg class="thumb" width="200px" height="200px" viewBox="0,0,793,170" xmlns="http://www.w3.org/2000/svg" xmlns:inkscape="http://www.inkscape.org/namespaces/inkscape" xmlns:sodipodi="http://sodipodi.sourceforge.net/DTD/sodipodi-0.dtd" xmlns:xlink="http://www.w3.org/1999/xlink" xmlns:ns1="http://www.inkscape.org/namespaces/inkscape" xmlns:sketch="http://www.bohemiancoding.com/sketch/ns"><defs><style type='text/css'></style></defs><g transform="matrix(0.3966,-0.3571,0.2066,0.2294,294.4716,67.7216)"><svg width="186.075" height="74" viewBox="-5,55.718,186.075,74" class="thumb"><defs><linearGradient x1="0" y1="0.5" x2="1" y2="0.5" id="linearGradientSjg2gb4313"><stop offset="0%" stop-color="#20bd67"></stop><stop offset="100%" stop-color="#20bd67"></stop></linearGradient></defs><g></g><g></g><g><polygon points="141.476,124.718 0,124.718 34.599,60.718 176.075,60.718 " fill="url('#linearGradientSjg2gb4313')"></polygon></g></svg></g><g transform="matrix(0.3966,-0.3571,0.2066,0.2294,330.4716,66.7216)"><svg width="186.075" height="74" viewBox="-5,55.718,186.075,74" class="thumb"><defs><linearGradient x1="0" y1="0.5" x2="1" y2="0.5" id="linearGradientSjg2gb4319"><stop offset="0%" stop-color="#199450"></stop><stop offset="100%" stop-color="#199450"></stop></linearGradient></defs><g></g><g></g><g><polygon points="141.476,124.718 0,124.718 34.599,60.718 176.075,60.718 " fill="url('#linearGradientSjg2gb4319')"></polygon></g></svg></g><g transform="matrix(0.3966,-0.3571,0.2066,0.2294,368.4716,66.7216)"><svg width="186.075" height="74" viewBox="-5,55.718,186.075,74" class="thumb"><defs><linearGradient x1="0" y1="0.5" x2="1" y2="0.5" id="linearGradientSjg2gb431f"><stop offset="0%" stop-color="#11703c"></stop><stop offset="100%" stop-color="#11703c"></stop></linearGradient></defs><g></g><g></g><g><polygon points="141.476,124.718 0,124.718 34.599,60.718 176.075,60.718 " fill="url('#linearGradientSjg2gb431f')"></polygon></g></svg></g><g transform="matrix(0.5,0,0,0.5,60.25,79.5)"><svg width="1327" height="182"><defs><linearGradient x1="0" y1="91" x2="1327" y2="91" gradientUnits="userSpaceOnUse" id="linearGradientSjg2gb431o"><stop offset="0%" stop-color="#20bd67"></stop><stop offset="100%" stop-color="#20bd67"></stop></linearGradient></defs><g transform="matrix(1,0,0,1,0,118.3)"><path d="M56.50-70L72.50-70L72.50 0L59.20 0L24.30-42.50L24.30 0L8.30 0L8.30-70L21.70-70L56.50-27.50L56.50-70ZM113.60 0.80L113.60 0.80Q105.10 0.80 98.35-2.75L98.35-2.75L98.35-2.75Q91.60-6.30 87.80-12.60L87.80-12.60L87.80-12.60Q84.00-18.90 84.00-26.90L84.00-26.90L84.00-26.90Q84.00-34.90 87.80-41.20L87.80-41.20L87.80-41.20Q91.60-47.50 98.35-51.05L98.35-51.05L98.35-51.05Q105.10-54.60 113.60-54.60L113.60-54.60L113.60-54.60Q122.10-54.60 128.80-51.05L128.80-51.05L128.80-51.05Q135.50-47.50 139.30-41.20L139.30-41.20L139.30-41.20Q143.10-34.90 143.10-26.90L143.10-26.90L143.10-26.90Q143.10-18.90 139.30-12.60L139.30-12.60L139.30-12.60Q135.50-6.30 128.80-2.75L128.80-2.75L128.80-2.75Q122.10 0.80 113.60 0.80L113.60 0.80ZM113.60-12L113.60-12Q119.60-12 123.45-16.05L123.45-16.05L123.45-16.05Q127.30-20.10 127.30-26.90L127.30-26.90L127.30-26.90Q127.30-33.70 123.45-37.75L123.45-37.75L123.45-37.75Q119.60-41.80 113.60-41.80L113.60-41.80L113.60-41.80Q107.60-41.80 103.70-37.75L103.70-37.75L103.70-37.75Q99.80-33.70 99.80-26.90L99.80-26.90L99.80-26.90Q99.80-20.10 103.70-16.05L103.70-16.05L103.70-16.05Q107.60-12 113.60-12L113.60-12ZM168.40-46.70L168.40-46.70Q171.20-50.60 175.95-52.60L175.95-52.60L175.95-52.60Q180.70-54.60 186.90-54.60L186.90-54.60L186.90-40.20L186.90-40.20Q184.30-40.40 183.40-40.40L183.40-40.40L183.40-40.40Q176.70-40.40 172.90-36.65L172.90-36.65L172.90-36.65Q169.10-32.90 169.10-25.40L169.10-25.40L169.10 0L153.50 0L153.50-53.80L168.40-53.80L168.40-46.70ZM228.60-13.60L232.80-2.60L232.80-2.60Q230.50-0.90 227.15-0.05L227.15-0.05L227.15-0.05Q223.80 0.80 220.10 0.80L220.10 0.80L220.10 0.80Q210.50 0.80 205.25-4.10L205.25-4.10L205.25-4.10Q200-9 200-18.50L200-18.50L200-40.60L191.70-40.60L191.70-52.60L200-52.60L200-65.70L215.60-65.70L215.60-52.60L229-52.60L229-40.60L215.60-40.60L215.60-18.70L215.60-18.70Q215.60-15.30 217.35-13.45L217.35-13.45L217.35-13.45Q219.10-11.60 222.30-11.60L222.30-11.60L222.30-11.60Q226-11.60 228.60-13.60L228.60-13.60ZM274.30-54.60L274.30-54.60Q284.30-54.60 290.45-48.60L290.45-48.60L290.45-48.60Q296.60-42.60 296.60-30.80L296.60-30.80L296.60 0L281 0L281-28.40L281-28.40Q281-34.80 278.20-37.95L278.20-37.95L278.20-37.95Q275.40-41.10 270.10-41.10L270.10-41.10L270.10-41.10Q264.20-41.10 260.70-37.45L260.70-37.45L260.70-37.45Q257.20-33.80 257.20-26.60L257.20-26.60L257.20 0L241.60 0L241.60-74.20L257.20-74.20L257.20-48.20L257.20-48.20Q260.30-51.30 264.70-52.95L264.70-52.95L264.70-52.95Q269.10-54.60 274.30-54.60L274.30-54.60ZM382.30-53.80L396.10-53.80L376.60 0L361.60 0L349.50-33.40L337 0L322 0L302.60-53.80L317.30-53.80L330-17.40L343.20-53.80L356.40-53.80L369.20-17.40L382.30-53.80ZM454.60-26.70L454.60-26.70Q454.60-26.40 454.30-22.50L454.30-22.50L413.60-22.50L413.60-22.50Q414.70-17.50 418.80-14.60L418.80-14.60L418.80-14.60Q422.90-11.70 429-11.70L429-11.70L429-11.70Q433.20-11.70 436.45-12.95L436.45-12.95L436.45-12.95Q439.70-14.20 442.50-16.90L442.50-16.90L450.80-7.90L450.80-7.90Q443.20 0.80 428.60 0.80L428.60 0.80L428.60 0.80Q419.50 0.80 412.50-2.75L412.50-2.75L412.50-2.75Q405.50-6.30 401.70-12.60L401.70-12.60L401.70-12.60Q397.90-18.90 397.90-26.90L397.90-26.90L397.90-26.90Q397.90-34.80 401.65-41.15L401.65-41.15L401.65-41.15Q405.40-47.50 411.95-51.05L411.95-51.05L411.95-51.05Q418.50-54.60 426.60-54.60L426.60-54.60L426.60-54.60Q434.50-54.60 440.90-51.20L440.90-51.20L440.90-51.20Q447.30-47.80 450.95-41.45L450.95-41.45L450.95-41.45Q454.60-35.10 454.60-26.70L454.60-26.70ZM426.70-42.80L426.70-42.80Q421.40-42.80 417.80-39.80L417.80-39.80L417.80-39.80Q414.20-36.80 413.40-31.60L413.40-31.60L439.90-31.60L439.90-31.60Q439.10-36.70 435.50-39.75L435.50-39.75L435.50-39.75Q431.90-42.80 426.70-42.80L426.70-42.80ZM483.10 0.80L483.10 0.80Q476.40 0.80 470-0.85L470-0.85L470-0.85Q463.60-2.50 459.80-5L459.80-5L465-16.20L465-16.20Q468.60-13.90 473.70-12.45L473.70-12.45L473.70-12.45Q478.80-11 483.70-11L483.70-11L483.70-11Q493.60-11 493.60-15.90L493.60-15.90L493.60-15.90Q493.60-18.20 490.90-19.20L490.90-19.20L490.90-19.20Q488.20-20.20 482.60-20.90L482.60-20.90L482.60-20.90Q476-21.90 471.70-23.20L471.70-23.20L471.70-23.20Q467.40-24.50 464.25-27.80L464.25-27.80L464.25-27.80Q461.10-31.10 461.10-37.20L461.10-37.20L461.10-37.20Q461.10-42.30 464.05-46.25L464.05-46.25L464.05-46.25Q467-50.20 472.65-52.40L472.65-52.40L472.65-52.40Q478.30-54.60 486-54.60L486-54.60L486-54.60Q491.70-54.60 497.35-53.35L497.35-53.35L497.35-53.35Q503-52.10 506.70-49.90L506.70-49.90L501.50-38.80L501.50-38.80Q494.40-42.80 486-42.80L486-42.80L486-42.80Q481-42.80 478.50-41.40L478.50-41.40L478.50-41.40Q476-40 476-37.80L476-37.80L476-37.80Q476-35.30 478.70-34.30L478.70-34.30L478.70-34.30Q481.40-33.30 487.30-32.40L487.30-32.40L487.30-32.40Q493.90-31.30 498.10-30.05L498.10-30.05L498.10-30.05Q502.30-28.80 505.40-25.50L505.40-25.50L505.40-25.50Q508.50-22.20 508.50-16.30L508.50-16.30L508.50-16.30Q508.50-11.30 505.50-7.40L505.50-7.40L505.50-7.40Q502.50-3.50 496.75-1.35L496.75-1.35L496.75-1.35Q491 0.80 483.10 0.80L483.10 0.80ZM548.60-13.60L552.80-2.60L552.80-2.60Q550.50-0.90 547.15-0.05L547.15-0.05L547.15-0.05Q543.80 0.80 540.10 0.80L540.10 0.80L540.10 0.80Q530.50 0.80 525.25-4.10L525.25-4.10L525.25-4.10Q520-9 520-18.50L520-18.50L520-40.60L511.70-40.60L511.70-52.60L520-52.60L520-65.70L535.60-65.70L535.60-52.60L549-52.60L549-40.60L535.60-40.60L535.60-18.70L535.60-18.70Q535.60-15.30 537.35-13.45L537.35-13.45L537.35-13.45Q539.10-11.60 542.30-11.60L542.30-11.60L542.30-11.60Q546-11.60 548.60-13.60L548.60-13.60ZM591 0L591-70L622.80-70L622.80-70Q634.20-70 642.95-65.65L642.95-65.65L642.95-65.65Q651.70-61.30 656.55-53.40L656.55-53.40L656.55-53.40Q661.40-45.50 661.40-35L661.40-35L661.40-35Q661.40-24.50 656.55-16.60L656.55-16.60L656.55-16.60Q651.70-8.70 642.95-4.35L642.95-4.35L642.95-4.35Q634.20 0 622.80 0L622.80 0L591 0ZM607.20-13.30L622-13.30L622-13.30Q632.50-13.30 638.75-19.15L638.75-19.15L638.75-19.15Q645-25 645-35L645-35L645-35Q645-45 638.75-50.85L638.75-50.85L638.75-50.85Q632.50-56.70 622-56.70L622-56.70L607.20-56.70L607.20-13.30ZM694.20-54.60L694.20-54.60Q706.70-54.60 713.40-48.65L713.40-48.65L713.40-48.65Q720.10-42.70 720.10-30.70L720.10-30.70L720.10 0L705.50 0L705.50-6.70L705.50-6.70Q701.10 0.80 689.10 0.80L689.10 0.80L689.10 0.80Q682.90 0.80 678.35-1.30L678.35-1.30L678.35-1.30Q673.80-3.40 671.40-7.10L671.40-7.10L671.40-7.10Q669.00-10.80 669.00-15.50L669.00-15.50L669.00-15.50Q669.00-23 674.65-27.30L674.65-27.30L674.65-27.30Q680.30-31.60 692.10-31.60L692.10-31.60L704.50-31.60L704.50-31.60Q704.50-36.70 701.40-39.45L701.40-39.45L701.40-39.45Q698.30-42.20 692.10-42.20L692.10-42.20L692.10-42.20Q687.80-42.20 683.65-40.85L683.65-40.85L683.65-40.85Q679.50-39.50 676.60-37.20L676.60-37.20L671.00-48.10L671.00-48.10Q675.40-51.20 681.55-52.90L681.55-52.90L681.55-52.90Q687.70-54.60 694.20-54.60L694.20-54.60ZM693.00-9.70L693.00-9.70Q697.00-9.70 700.10-11.55L700.10-11.55L700.10-11.55Q703.20-13.40 704.50-17L704.50-17L704.50-22.50L693.80-22.50L693.80-22.50Q684.20-22.50 684.20-16.20L684.20-16.20L684.20-16.20Q684.20-13.20 686.55-11.45L686.55-11.45L686.55-11.45Q688.90-9.70 693.00-9.70L693.00-9.70ZM764.70-13.60L768.90-2.60L768.90-2.60Q766.60-0.90 763.25-0.05L763.25-0.05L763.25-0.05Q759.90 0.80 756.20 0.80L756.20 0.80L756.20 0.80Q746.60 0.80 741.35-4.10L741.35-4.10L741.35-4.10Q736.10-9 736.10-18.50L736.10-18.50L736.10-40.60L727.80-40.60L727.80-52.60L736.10-52.60L736.10-65.70L751.70-65.70L751.70-52.60L765.10-52.60L765.10-40.60L751.70-40.60L751.70-18.70L751.70-18.70Q751.70-15.30 753.45-13.45L753.45-13.45L753.45-13.45Q755.20-11.60 758.40-11.60L758.40-11.60L758.40-11.60Q762.10-11.60 764.70-13.60L764.70-13.60ZM799.40-54.60L799.40-54.60Q811.90-54.60 818.60-48.65L818.60-48.65L818.60-48.65Q825.30-42.70 825.30-30.70L825.30-30.70L825.30 0L810.70 0L810.70-6.70L810.70-6.70Q806.30 0.80 794.30 0.80L794.30 0.80L794.30 0.80Q788.10 0.80 783.55-1.30L783.55-1.30L783.55-1.30Q779.00-3.40 776.60-7.10L776.60-7.10L776.60-7.10Q774.20-10.80 774.20-15.50L774.20-15.50L774.20-15.50Q774.20-23 779.85-27.30L779.85-27.30L779.85-27.30Q785.50-31.60 797.30-31.60L797.30-31.60L809.70-31.60L809.70-31.60Q809.70-36.70 806.60-39.45L806.60-39.45L806.60-39.45Q803.50-42.20 797.30-42.20L797.30-42.20L797.30-42.20Q793.00-42.20 788.85-40.85L788.85-40.85L788.85-40.85Q784.70-39.50 781.80-37.20L781.80-37.20L776.20-48.10L776.20-48.10Q780.60-51.20 786.75-52.90L786.75-52.90L786.75-52.90Q792.90-54.60 799.40-54.60L799.40-54.60ZM798.20-9.70L798.20-9.70Q802.20-9.70 805.30-11.55L805.30-11.55L805.30-11.55Q808.40-13.40 809.70-17L809.70-17L809.70-22.50L799.00-22.50L799.00-22.50Q789.40-22.50 789.40-16.20L789.40-16.20L789.40-16.20Q789.40-13.20 791.75-11.45L791.75-11.45L791.75-11.45Q794.10-9.70 798.20-9.70L798.20-9.70ZM891.80 1.20L891.80 1.20Q883.50 1.20 875.75-1.05L875.75-1.05L875.75-1.05Q868.00-3.30 863.30-6.90L863.30-6.90L868.80-19.10L868.80-19.10Q873.30-15.80 879.50-13.80L879.50-13.80L879.50-13.80Q885.70-11.80 891.90-11.80L891.90-11.80L891.90-11.80Q898.80-11.80 902.10-13.85L902.10-13.85L902.10-13.85Q905.40-15.90 905.40-19.30L905.40-19.30L905.40-19.30Q905.40-21.80 903.45-23.45L903.45-23.45L903.45-23.45Q901.50-25.10 898.45-26.10L898.45-26.10L898.45-26.10Q895.40-27.10 890.20-28.30L890.20-28.30L890.20-28.30Q882.20-30.20 877.10-32.10L877.10-32.10L877.10-32.10Q872.00-34 868.35-38.20L868.35-38.20L868.35-38.20Q864.70-42.40 864.70-49.40L864.70-49.40L864.70-49.40Q864.70-55.50 868.00-60.45L868.00-60.45L868.00-60.45Q871.30-65.40 877.95-68.30L877.95-68.30L877.95-68.30Q884.60-71.20 894.20-71.20L894.20-71.20L894.20-71.20Q900.90-71.20 907.30-69.60L907.30-69.60L907.30-69.60Q913.70-68 918.50-65L918.50-65L913.50-52.70L913.50-52.70Q903.80-58.20 894.10-58.20L894.10-58.20L894.10-58.20Q887.30-58.20 884.05-56L884.05-56L884.05-56Q880.80-53.80 880.80-50.20L880.80-50.20L880.80-50.20Q880.80-46.60 884.55-44.85L884.55-44.85L884.55-44.85Q888.30-43.10 896.00-41.40L896.00-41.40L896.00-41.40Q904.00-39.50 909.10-37.60L909.10-37.60L909.10-37.60Q914.20-35.70 917.85-31.60L917.85-31.60L917.85-31.60Q921.50-27.50 921.50-20.50L921.50-20.50L921.50-20.50Q921.50-14.50 918.15-9.55L918.15-9.55L918.15-9.55Q914.80-4.60 908.10-1.70L908.10-1.70L908.10-1.70Q901.40 1.20 891.80 1.20L891.80 1.20ZM957.50 0.80L957.50 0.80Q948.90 0.80 942.05-2.75L942.05-2.75L942.05-2.75Q935.20-6.30 931.35-12.60L931.35-12.60L931.35-12.60Q927.50-18.90 927.50-26.90L927.50-26.90L927.50-26.90Q927.50-34.90 931.35-41.20L931.35-41.20L931.35-41.20Q935.20-47.50 942.05-51.05L942.05-51.05L942.05-51.05Q948.90-54.60 957.50-54.60L957.50-54.60L957.50-54.60Q966.00-54.60 972.35-51.05L972.35-51.05L972.35-51.05Q978.70-47.50 981.60-40.90L981.60-40.90L969.50-34.40L969.50-34.40Q965.30-41.80 957.40-41.80L957.40-41.80L957.40-41.80Q951.30-41.80 947.30-37.80L947.30-37.80L947.30-37.80Q943.30-33.80 943.30-26.90L943.30-26.90L943.30-26.90Q943.30-20 947.30-16L947.30-16L947.30-16Q951.30-12 957.40-12L957.40-12L957.40-12Q965.40-12 969.50-19.40L969.50-19.40L981.60-12.80L981.60-12.80Q978.70-6.40 972.35-2.80L972.35-2.80L972.35-2.80Q966.00 0.80 957.50 0.80L957.50 0.80ZM990.60 0L990.60-53.80L1006.20-53.80L1006.20 0L990.60 0ZM998.40-61.30L998.40-61.30Q994.10-61.30 991.40-63.80L991.40-63.80L991.40-63.80Q988.70-66.30 988.70-70L988.70-70L988.70-70Q988.70-73.70 991.40-76.20L991.40-76.20L991.40-76.20Q994.10-78.70 998.40-78.70L998.40-78.70L998.40-78.70Q1002.70-78.70 1005.40-76.30L1005.40-76.30L1005.40-76.30Q1008.10-73.90 1008.10-70.30L1008.10-70.30L1008.10-70.30Q1008.10-66.40 1005.40-63.85L1005.40-63.85L1005.40-63.85Q1002.70-61.30 998.40-61.30L998.40-61.30ZM1073.40-26.70L1073.40-26.70Q1073.40-26.40 1073.10-22.50L1073.10-22.50L1032.40-22.50L1032.40-22.50Q1033.50-17.50 1037.60-14.60L1037.60-14.60L1037.60-14.60Q1041.70-11.70 1047.80-11.70L1047.80-11.70L1047.80-11.70Q1052-11.70 1055.25-12.95L1055.25-12.95L1055.25-12.95Q1058.50-14.20 1061.30-16.90L1061.30-16.90L1069.60-7.90L1069.60-7.90Q1062 0.80 1047.40 0.80L1047.40 0.80L1047.40 0.80Q1038.30 0.80 1031.30-2.75L1031.30-2.75L1031.30-2.75Q1024.30-6.30 1020.50-12.60L1020.50-12.60L1020.50-12.60Q1016.70-18.90 1016.70-26.90L1016.70-26.90L1016.70-26.90Q1016.70-34.80 1020.45-41.15L1020.45-41.15L1020.45-41.15Q1024.20-47.50 1030.75-51.05L1030.75-51.05L1030.75-51.05Q1037.30-54.60 1045.40-54.60L1045.40-54.60L1045.40-54.60Q1053.30-54.60 1059.70-51.20L1059.70-51.20L1059.70-51.20Q1066.10-47.80 1069.75-41.45L1069.75-41.45L1069.75-41.45Q1073.40-35.10 1073.40-26.70L1073.40-26.70ZM1045.50-42.80L1045.50-42.80Q1040.20-42.80 1036.60-39.80L1036.60-39.80L1036.60-39.80Q1033-36.80 1032.20-31.60L1032.20-31.60L1058.70-31.60L1058.70-31.60Q1057.90-36.70 1054.30-39.75L1054.30-39.75L1054.30-39.75Q1050.70-42.80 1045.50-42.80L1045.50-42.80ZM1116.50-54.60L1116.50-54.60Q1126.50-54.60 1132.65-48.60L1132.65-48.60L1132.65-48.60Q1138.80-42.60 1138.80-30.80L1138.80-30.80L1138.80 0L1123.20 0L1123.20-28.40L1123.20-28.40Q1123.20-34.80 1120.40-37.95L1120.40-37.95L1120.40-37.95Q1117.60-41.10 1112.30-41.10L1112.30-41.10L1112.30-41.10Q1106.40-41.10 1102.90-37.45L1102.90-37.45L1102.90-37.45Q1099.40-33.80 1099.40-26.60L1099.40-26.60L1099.40 0L1083.80 0L1083.80-53.80L1098.70-53.80L1098.70-47.50L1098.70-47.50Q1101.80-50.90 1106.40-52.75L1106.40-52.75L1106.40-52.75Q1111.00-54.60 1116.50-54.60L1116.50-54.60ZM1179.50 0.80L1179.50 0.80Q1170.90 0.80 1164.05-2.75L1164.05-2.75L1164.05-2.75Q1157.20-6.30 1153.35-12.60L1153.35-12.60L1153.35-12.60Q1149.50-18.90 1149.50-26.90L1149.50-26.90L1149.50-26.90Q1149.50-34.90 1153.35-41.20L1153.35-41.20L1153.35-41.20Q1157.20-47.50 1164.05-51.05L1164.05-51.05L1164.05-51.05Q1170.90-54.60 1179.50-54.60L1179.50-54.60L1179.50-54.60Q1188-54.60 1194.35-51.05L1194.35-51.05L1194.35-51.05Q1200.70-47.50 1203.60-40.90L1203.60-40.90L1191.50-34.40L1191.50-34.40Q1187.30-41.80 1179.40-41.80L1179.40-41.80L1179.40-41.80Q1173.30-41.80 1169.30-37.80L1169.30-37.80L1169.30-37.80Q1165.30-33.80 1165.30-26.90L1165.30-26.90L1165.30-26.90Q1165.30-20 1169.30-16L1169.30-16L1169.30-16Q1173.30-12 1179.40-12L1179.40-12L1179.40-12Q1187.40-12 1191.50-19.40L1191.50-19.40L1203.60-12.80L1203.60-12.80Q1200.70-6.40 1194.35-2.80L1194.35-2.80L1194.35-2.80Q1188 0.80 1179.50 0.80L1179.50 0.80ZM1264.60-26.70L1264.60-26.70Q1264.60-26.40 1264.30-22.50L1264.30-22.50L1223.60-22.50L1223.60-22.50Q1224.70-17.50 1228.80-14.60L1228.80-14.60L1228.80-14.60Q1232.90-11.70 1239.00-11.70L1239.00-11.70L1239.00-11.70Q1243.20-11.70 1246.45-12.95L1246.45-12.95L1246.45-12.95Q1249.70-14.20 1252.50-16.90L1252.50-16.90L1260.80-7.90L1260.80-7.90Q1253.20 0.80 1238.60 0.80L1238.60 0.80L1238.60 0.80Q1229.50 0.80 1222.50-2.75L1222.50-2.75L1222.50-2.75Q1215.50-6.30 1211.70-12.60L1211.70-12.60L1211.70-12.60Q1207.90-18.90 1207.90-26.90L1207.90-26.90L1207.90-26.90Q1207.90-34.80 1211.65-41.15L1211.65-41.15L1211.65-41.15Q1215.40-47.50 1221.95-51.05L1221.95-51.05L1221.95-51.05Q1228.50-54.60 1236.60-54.60L1236.60-54.60L1236.60-54.60Q1244.50-54.60 1250.90-51.20L1250.90-51.20L1250.90-51.20Q1257.30-47.80 1260.95-41.45L1260.95-41.45L1260.95-41.45Q1264.60-35.10 1264.60-26.70L1264.60-26.70ZM1236.70-42.80L1236.70-42.80Q1231.40-42.80 1227.80-39.80L1227.80-39.80L1227.80-39.80Q1224.20-36.80 1223.40-31.60L1223.40-31.60L1249.90-31.60L1249.90-31.60Q1249.10-36.70 1245.50-39.75L1245.50-39.75L1245.50-39.75Q1241.90-42.80 1236.70-42.80L1236.70-42.80Z" fill="url('#linearGradientSjg2gb431o')"></path></g><path fill="none" style=""></path></svg></g></svg>
